<?xml version="1.0" encoding="utf-8"?>
<!-- Generator: Adobe Illustrator 24.0.3, SVG Export Plug-In . SVG Version: 6.00 Build 0)  -->
<svg version="1.1" id="Layer_1" xmlns="http://www.w3.org/2000/svg" xmlns:xlink="http://www.w3.org/1999/xlink" x="0px" y="0px"
	 viewBox="0 0 36.4 36.4" style="enable-background:new 0 0 36.4 36.4;" xml:space="preserve">
<style type="text/css">
	.st0{fill:#CD2030;}
	.st1{fill:none;stroke:#CD2030;stroke-width:3.000000e-02;}
	.st2{fill:#FFD445;}
	.st3{fill:#FFD650;}
	.st4{fill:#FFD95C;}
	.st5{fill:#FFDA67;}
	.st6{fill:#FFDC71;}
	.st7{fill:#FFDE7D;}
	.st8{fill:#FFE085;}
	.st9{fill:#FFE28F;}
	.st10{fill:#FFE598;}
	.st11{fill:#FEE6A0;}
	.st12{fill:#FEE9AB;}
	.st13{fill:#FEEAB3;}
	.st14{fill:#FFEDBC;}
	.st15{fill:#FFF0C5;}
	.st16{fill:#FFF2CE;}
	.st17{fill:#FFF3D6;}
	.st18{fill:#FEF6DD;}
	.st19{fill:#FFF8E6;}
	.st20{fill:#FFFAEE;}
	.st21{fill:#FFFDF4;}
	.st22{fill:#FFFFFD;}
	.st23{fill:#FFFFFF;}
	.st24{fill:#FFFDF6;}
</style>
<title>logo-solo</title>
<g id="Layer_1_1_">
	<path class="st0" d="M0,8.6C21.5-10.2,39.8,9,29.2,23.4c-0.7,1-1.5,1.8-2.5,2.5c5.1-2.6,10-14.9,2.2-23.7
		c13.4,10.7,4.8,22.2,4.3,22.2c1-0.8,1.9-1.9,2.5-3.1c-4.4,10.9-13.3,14.8-23.1,10.9c2.7,2.1,7,2.6,11.1,3.1
		C6,37.8-1.5,19.5,5.6,12.5c-3.4,3.2-4.3,5.5-5.5,9.8c-0.8-6,5-14,12-16.2c7.6-2.5,13.7,1.2,15.3,5.4C25.2,3.7,14.6,2,3.2,8.9
		c1.8-2.4,7.6-5.2,10.6-5.3C12.2,3.2,6.1,4.6,0,8.6"/>
	<path class="st1" d="M0,8.6C21.5-10.2,39.8,9,29.2,23.4c-0.7,1-1.5,1.8-2.5,2.5c5.1-2.6,10-14.9,2.2-23.7
		c13.4,10.7,4.8,22.2,4.3,22.2c1-0.8,1.9-1.9,2.5-3.1c-4.4,10.9-13.3,14.8-23.1,10.9c2.7,2.1,7,2.6,11.1,3.1
		C6,37.8-1.5,19.5,5.6,12.5c-3.4,3.2-4.3,5.5-5.5,9.8c-0.8-6,5-14,12-16.2c7.6-2.5,13.7,1.2,15.3,5.4C25.2,3.7,14.6,2,3.2,8.9
		c1.8-2.4,7.6-5.2,10.6-5.3C12.2,3.2,6.1,4.6,0,8.6z"/>
	<path class="st2" d="M12.1,16.9c0-3.4,2.8-6.1,6.1-6.1l0,0c3.4,0,6.1,2.7,6.1,6.1l0,0c0,3.4-2.8,6.1-6.1,6.1
		C14.9,23.1,12.1,20.3,12.1,16.9"/>
	<path class="st3" d="M12.3,16.9c0-3.3,2.7-6,6-6l0,0c3.3,0,6,2.7,6,6l0,0c0,3.3-2.7,6-6,6l0,0C15,22.9,12.3,20.2,12.3,16.9
		L12.3,16.9"/>
	<path class="st4" d="M12.5,16.9c0-3.2,2.6-5.8,5.8-5.8c3.2,0,5.8,2.6,5.8,5.8c0,3.2-2.6,5.8-5.8,5.8c0,0,0,0,0,0
		C15.1,22.7,12.5,20.1,12.5,16.9L12.5,16.9L12.5,16.9"/>
	<path class="st5" d="M12.6,16.9c0-3.1,2.5-5.6,5.6-5.6c0,0,0,0,0,0l0,0c3.1,0,5.6,2.5,5.6,5.6s-2.5,5.6-5.6,5.6S12.6,20,12.6,16.9
		L12.6,16.9"/>
	<path class="st6" d="M12.8,16.9c0-3,2.4-5.4,5.4-5.4l0,0l0,0c3,0,5.5,2.4,5.5,5.4l0,0l0,0c0,3-2.4,5.4-5.5,5.4l0,0l0,0
		C15.2,22.3,12.8,19.9,12.8,16.9L12.8,16.9"/>
	<path class="st7" d="M13,16.9c0-2.9,2.4-5.3,5.3-5.3s5.3,2.4,5.3,5.3s-2.4,5.3-5.3,5.3S13,19.8,13,16.9L13,16.9L13,16.9"/>
	<path class="st8" d="M13.1,16.9c0-2.8,2.3-5.1,5.1-5.1c0,0,0,0,0,0l0,0c2.8,0,5.1,2.3,5.1,5.1S21.1,22,18.2,22S13.1,19.7,13.1,16.9
		C13.1,16.9,13.1,16.9,13.1,16.9L13.1,16.9"/>
	<path class="st9" d="M13.3,16.9c0-2.7,2.2-4.9,4.9-4.9l0,0l0,0c2.7,0,4.9,2.2,4.9,4.9s-2.2,4.9-4.9,4.9S13.3,19.6,13.3,16.9
		L13.3,16.9"/>
	<path class="st10" d="M13.5,16.9c0-2.6,2.1-4.8,4.8-4.8s4.8,2.1,4.8,4.8c0,0,0,0,0,0l0,0c0,2.6-2.1,4.8-4.7,4.8
		c-2.6,0-4.8-2.1-4.8-4.7V16.9"/>
	<path class="st11" d="M13.7,16.9c0-2.5,2.1-4.6,4.6-4.6s4.6,2.1,4.6,4.6s-2.1,4.6-4.6,4.6l0,0C15.7,21.5,13.7,19.4,13.7,16.9"/>
	<path class="st12" d="M13.8,16.9c0-2.4,1.9-4.5,4.3-4.5c2.4,0,4.5,1.9,4.5,4.3c0,0.1,0,0.1,0,0.2c-0.1,2.4-2.2,4.3-4.6,4.2
		C15.8,21,13.9,19.2,13.8,16.9"/>
	<path class="st13" d="M14,16.9c0-2.3,1.9-4.2,4.2-4.2l0,0c2.3,0,4.2,1.9,4.2,4.2s-1.9,4.2-4.2,4.2S14,19.2,14,16.9L14,16.9L14,16.9
		"/>
	<path class="st14" d="M14.2,16.9c0-2.2,1.8-4.1,4.1-4.1s4.1,1.8,4.1,4.1s-1.8,4.1-4.1,4.1l0,0C16,20.9,14.2,19.1,14.2,16.9"/>
	<path class="st15" d="M14.4,16.9c0-2.2,1.7-3.9,3.9-3.9s3.9,1.7,3.9,3.9l0,0c0,2.2-1.7,3.9-3.9,3.9S14.4,19,14.4,16.9
		C14.4,16.9,14.4,16.9,14.4,16.9"/>
	<path class="st16" d="M14.5,16.9c0-2.1,1.7-3.7,3.7-3.7s3.7,1.7,3.7,3.7s-1.7,3.7-3.7,3.7l0,0C16.2,20.6,14.5,18.9,14.5,16.9"/>
	<path class="st17" d="M14.7,16.9c0-2,1.6-3.6,3.5-3.6c2,0,3.6,1.6,3.6,3.5s-1.6,3.6-3.5,3.6c0,0,0,0,0,0
		C16.3,20.4,14.7,18.8,14.7,16.9"/>
	<path class="st18" d="M14.9,16.9c0-1.9,1.5-3.4,3.4-3.4c1.9,0,3.4,1.5,3.4,3.4c0,1.9-1.5,3.4-3.4,3.4l0,0
		C16.4,20.3,14.9,18.7,14.9,16.9C14.9,16.9,14.9,16.9,14.9,16.9"/>
	<path class="st19" d="M15,16.9c0-1.8,1.4-3.3,3.2-3.3c1.8,0,3.3,1.4,3.3,3.2v0.1c0,1.8-1.4,3.2-3.2,3.2C16.5,20.1,15,18.6,15,16.9"
		/>
	<path class="st20" d="M15.2,16.9c0-1.7,1.3-3,3-3c1.7,0,3,1.3,3,3s-1.3,3-3,3c0,0,0,0,0,0C16.6,19.9,15.2,18.5,15.2,16.9L15.2,16.9
		"/>
	<path class="st21" d="M15.4,16.9c-0.1-1.6,1.1-2.9,2.7-3c1.6-0.1,2.9,1.1,3,2.7c0,0.1,0,0.2,0,0.3l0,0c-0.1,1.6-1.5,2.8-3,2.7
		C16.6,19.5,15.5,18.3,15.4,16.9"/>
	<path class="st22" d="M15.6,16.9c0-1.5,1.2-2.7,2.7-2.7c1.5,0,2.7,1.2,2.7,2.7l0,0c0,1.5-1.2,2.7-2.7,2.7
		C16.8,19.6,15.6,18.4,15.6,16.9"/>
	<path class="st23" d="M12.3,25.2c1.1,1.1,2.5,1.9,4,2.2c0.6,0.1,1.3,0.2,1.9,0.2c0.3,0,0.5,0,0.8,0c0.8-0.1,1.5-0.2,2.2-0.4
		c0.8-0.3,1.6-0.7,2.3-1.2c0.3-0.2,0.6-0.5,0.9-0.8c0.4-0.4,0.7-0.8,1-1.3c0.6-0.9,1-1.8,1.2-2.8c0.3-0.9,0.3-1.8,0-2.7
		c0-0.1-0.1-0.1-0.1-0.2s-0.1,0-0.5,0.9c-0.1,0.2-0.2,0.5-0.3,0.7c-0.7,1.2-1.6,2.3-2.8,3.1c-1,0.7-2,1.1-3.2,1.3
		c-0.5,0.1-0.9,0.1-1.4,0.1c-1,0-1.9-0.1-2.9-0.4c-1.3-0.4-2.4-1.2-3.3-2.3c-0.8-1-1.5-2.2-1.9-3.4c0,0,0-0.5-0.3,0.4
		c-0.2,0.7-0.2,1.4,0,2.1c0.2,1.2,0.6,2.3,1.2,3.3C11.5,24.3,11.8,24.8,12.3,25.2"/>
	<path class="st24" d="M15.3,16.9c0-1.6,1.3-2.9,2.9-2.9c1.6,0,2.9,1.3,2.9,2.9l0,0c0,1.6-1.3,2.9-2.9,2.9
		C16.6,19.8,15.3,18.5,15.3,16.9C15.3,16.9,15.3,16.9,15.3,16.9"/>
	<path class="st0" d="M16.1,15.3H20c0,0-0.3,5.7-0.3,5.9s-0.2,0.3-0.3,0c-0.4-2.2,0.3-5.4-0.5-5.4h-0.4c-0.3,0-0.3,2-0.4,2.4
		c-0.1,0.2-0.2,0.1-0.2,0c-0.2-0.3,0-2.4-0.4-2.4h-0.3c-0.2,0-0.6,1.4-1,1.6c-0.2,0.1-0.4,0.1-0.2-0.1c0.3-0.4,0.4-0.9,0.4-1.4h-0.4
		C15.8,15.8,16.1,15.3,16.1,15.3"/>
</g>
</svg>
