<svg id="Layer_1" data-name="Layer 1" xmlns="http://www.w3.org/2000/svg" viewBox="0 0 190.81 37.92"><title>logo-website-white</title><path d="M3.86,9.38c21.53-18.77,39.78.36,29.22,14.83a9.06,9.06,0,0,1-2.52,2.45c5.12-2.65,10-14.9,2.2-23.68,13.36,10.7,4.75,22.24,4.31,22.18a10.43,10.43,0,0,0,2.55-3.08C35.24,33,26.34,36.91,16.52,33c2.75,2.08,7,2.62,11.1,3.11C9.82,38.62,2.3,20.31,9.39,13.32,6,16.59,5.13,18.81,3.93,23.14c-.81-6,5-14,12-16.21,7.63-2.54,13.75,1.17,15.31,5.36C29,4.44,18.49,2.79,7,9.73,8.78,7.38,14.61,4.51,17.6,4.45,16.09,4,9.93,5.43,3.86,9.38" style="fill:#cd2030"/><path d="M3.86,9.38c21.53-18.77,39.78.36,29.22,14.83a9.06,9.06,0,0,1-2.52,2.45c5.12-2.65,10-14.9,2.2-23.68,13.36,10.7,4.75,22.24,4.31,22.18a10.43,10.43,0,0,0,2.55-3.08C35.24,33,26.34,36.91,16.52,33c2.75,2.08,7,2.62,11.1,3.11C9.82,38.62,2.3,20.31,9.39,13.32,6,16.59,5.13,18.81,3.93,23.14c-.81-6,5-14,12-16.21,7.63-2.54,13.75,1.17,15.31,5.36C29,4.44,18.49,2.79,7,9.73,8.78,7.38,14.61,4.51,17.6,4.45,16.09,4,9.93,5.43,3.86,9.38Z" style="fill:none;stroke:#cd2030;stroke-width:0.025750650092959px"/><path d="M16,17.66a6.14,6.14,0,0,1,6.14-6.14h0a6.14,6.14,0,0,1,6.14,6.14h0a6.14,6.14,0,0,1-12.28,0" style="fill:#ffd445"/><path d="M16.13,17.66a6,6,0,0,1,6-6h0a6,6,0,0,1,6,6h0a6,6,0,0,1-6,6h0a6,6,0,0,1-6-6h0" style="fill:#ffd650"/><path d="M16.3,17.66a5.8,5.8,0,1,1,5.79,5.79,5.8,5.8,0,0,1-5.79-5.79h0" style="fill:#ffd95c"/><path d="M16.47,17.66A5.62,5.62,0,0,1,22.09,12h0a5.62,5.62,0,1,1-5.62,5.62h0" style="fill:#ffda67"/><path d="M16.64,17.66a5.45,5.45,0,0,1,5.45-5.45h0a5.45,5.45,0,0,1,5.45,5.45h0a5.45,5.45,0,0,1-5.45,5.45h0a5.45,5.45,0,0,1-5.45-5.45h0" style="fill:#ffdc71"/><path d="M16.82,17.66a5.28,5.28,0,1,1,5.27,5.28,5.27,5.27,0,0,1-5.27-5.28h0" style="fill:#ffde7d"/><path d="M17,17.66a5.1,5.1,0,0,1,5.1-5.11h0A5.11,5.11,0,1,1,17,17.66h0" style="fill:#ffe085"/><path d="M17.16,17.66a4.93,4.93,0,0,1,4.93-4.93h0a4.93,4.93,0,1,1-4.93,4.93h0" style="fill:#ffe28f"/><path d="M17.33,17.66a4.76,4.76,0,0,1,9.52,0h0a4.76,4.76,0,1,1-9.52.15v-.15" style="fill:#ffe598"/><path d="M17.5,17.66a4.59,4.59,0,1,1,4.59,4.59,4.59,4.59,0,0,1-4.59-4.59" style="fill:#fee6a0"/><path d="M17.68,17.66a4.42,4.42,0,1,1,8.83-.18v.18a4.42,4.42,0,0,1-8.83,0" style="fill:#fee9ab"/><path d="M17.85,17.66a4.24,4.24,0,0,1,4.24-4.25h0a4.25,4.25,0,1,1-4.24,4.25h0" style="fill:#feeab3"/><path d="M18,17.66a4.07,4.07,0,1,1,4.07,4.07A4.07,4.07,0,0,1,18,17.66" style="fill:#ffedbc"/><path d="M18.19,17.66a3.9,3.9,0,1,1,7.8,0h0a3.9,3.9,0,0,1-7.8,0" style="fill:#fff0c5"/><path d="M18.37,17.66a3.73,3.73,0,1,1,3.72,3.73,3.72,3.72,0,0,1-3.72-3.73" style="fill:#fff2ce"/><path d="M18.54,17.66a3.56,3.56,0,1,1,3.55,3.55,3.55,3.55,0,0,1-3.55-3.55" style="fill:#fff3d6"/><path d="M18.71,17.66A3.39,3.39,0,1,1,22.09,21a3.38,3.38,0,0,1-3.38-3.38" style="fill:#fef6dd"/><path d="M18.88,17.66a3.21,3.21,0,1,1,6.42-.09v.09a3.21,3.21,0,0,1-6.42,0" style="fill:#fff8e6"/><path d="M19.05,17.66a3,3,0,1,1,3,3,3,3,0,0,1-3-3h0" style="fill:#fffaee"/><path d="M19.23,17.66a2.87,2.87,0,1,1,5.73,0h0a2.87,2.87,0,0,1-5.73,0" style="fill:#fffdf4"/><path d="M19.4,17.66a2.7,2.7,0,1,1,5.39,0h0a2.7,2.7,0,0,1-5.39,0" style="fill:#fffffd"/><path d="M16.11,26a7.7,7.7,0,0,0,4,2.2,8.93,8.93,0,0,0,1.92.19q.41,0,.78,0A9.37,9.37,0,0,0,25.06,28a7.82,7.82,0,0,0,2.28-1.17,8.15,8.15,0,0,0,.88-.76,8.35,8.35,0,0,0,1-1.3,8.66,8.66,0,0,0,1.19-2.84,5,5,0,0,0,0-2.74,2.29,2.29,0,0,0-.1-.23c-.11-.19-.14.05-.46.85a5.93,5.93,0,0,1-.31.68,8.55,8.55,0,0,1-2.81,3.16,8.36,8.36,0,0,1-3.18,1.3,9.12,9.12,0,0,1-1.41.13,8.45,8.45,0,0,1-2.85-.43A7.16,7.16,0,0,1,16,22.32a11.8,11.8,0,0,1-1.93-3.42s0-.53-.34.37a4.55,4.55,0,0,0,0,2.07A9.11,9.11,0,0,0,16.11,26" style="fill:#fff"/><path d="M19.15,17.66a2.94,2.94,0,0,1,5.88,0h0a2.94,2.94,0,0,1-5.88,0" style="fill:#fffdf6"/><path d="M20,16h3.85s-.26,5.69-.32,5.89-.21.34-.27,0c-.36-2.2.31-5.4-.54-5.38h-.38c-.32,0-.33,2-.44,2.37-.05.18-.15.15-.21.05-.17-.3,0-2.42-.44-2.42h-.33c-.18,0-.57,1.36-1,1.57-.24.13-.4.1-.2-.14a2.69,2.69,0,0,0,.43-1.43h-.42c-.15,0,.23-.5.23-.5" style="fill:#cd2030"/><path d="M51,10a15.93,15.93,0,0,1,2.22-.17,4.65,4.65,0,0,1,3.28,1,3.73,3.73,0,0,1,1.14,2.9,4.29,4.29,0,0,1-1.17,3.15,5,5,0,0,1-3.57,1.16A16.91,16.91,0,0,1,51,18Zm1.05,7.15a6.32,6.32,0,0,0,1,.06,3.11,3.11,0,0,0,3.44-3.43c0-1.91-1.06-3.12-3.27-3.12a5.82,5.82,0,0,0-1.22.11Z" style="fill:#fff"/><path d="M60.08,9.92V18H59V9.92Z" style="fill:#fff"/><path d="M63.21,15.46,62.37,18H61.29L64,9.92H65.3L68.06,18H66.94l-.86-2.55Zm2.65-.81-.79-2.33c-.18-.53-.3-1-.42-1.47h0c-.12.48-.26,1-.41,1.46l-.79,2.34Z" style="fill:#fff"/><path d="M76,14.46C76,13.33,75.88,12,75.89,11h0c-.28.94-.61,1.95-1,3.07L73.41,18h-.79l-1.31-3.85c-.38-1.14-.71-2.18-.93-3.14h0c0,1-.08,2.36-.15,3.57L70,18H69l.57-8.09h1.33l1.38,3.91c.33,1,.61,1.89.81,2.73h0c.2-.82.49-1.71.85-2.73L75.4,9.92h1.33L77.24,18h-1Z" style="fill:#fff"/><path d="M85.76,13.88c0,2.78-1.69,4.26-3.76,4.26s-3.63-1.66-3.63-4.1S80,9.79,82.12,9.79,85.76,11.48,85.76,13.88ZM79.48,14c0,1.73.94,3.28,2.58,3.28s2.59-1.53,2.59-3.36c0-1.61-.84-3.29-2.58-3.29S79.48,12.24,79.48,14Z" style="fill:#fff"/><path d="M87.12,18V9.92h1.13L90.85,14a23.83,23.83,0,0,1,1.45,2.63h0c-.1-1.08-.12-2.06-.12-3.32V9.92h1V18H92.13l-2.57-4.1a27.44,27.44,0,0,1-1.51-2.7h0c.07,1,.09,2,.09,3.33V18Z" style="fill:#fff"/><path d="M95,10a15.81,15.81,0,0,1,2.22-.17,4.6,4.6,0,0,1,3.27,1,3.73,3.73,0,0,1,1.14,2.9,4.28,4.28,0,0,1-1.16,3.15,5,5,0,0,1-3.57,1.16A16.77,16.77,0,0,1,95,18Zm1,7.15a6.25,6.25,0,0,0,1,.06,3.11,3.11,0,0,0,3.44-3.43c0-1.91-1.06-3.12-3.27-3.12a5.82,5.82,0,0,0-1.22.11Z" style="fill:#fff"/><path d="M106.43,18l-2.05-8.09h1.11l1,4.09c.24,1,.45,2,.6,2.8h0c.13-.81.38-1.77.66-2.81l1.08-4.08h1.09l1,4.11c.23,1,.45,1.91.57,2.77h0c.17-.89.4-1.79.65-2.8l1.07-4.08h1.06L112,18h-1.09l-1-4.21a23,23,0,0,1-.52-2.64h0a24.73,24.73,0,0,1-.62,2.64L107.53,18Z" style="fill:#fff"/><path d="M115.89,15.46,115.05,18H114l2.75-8.09H118L120.74,18h-1.12l-.86-2.55Zm2.65-.81-.79-2.33c-.18-.53-.3-1-.42-1.47h0c-.12.48-.26,1-.41,1.46l-.79,2.34Z" style="fill:#fff"/><path d="M122.78,18V14.58l-2.56-4.66h1.19l1.14,2.23c.31.62.55,1.11.8,1.67h0c.23-.53.5-1.05.81-1.67l1.17-2.23h1.18l-2.71,4.65V18Z" style="fill:#fff"/><path d="M130,10a10.7,10.7,0,0,1,1.91-.17,3.31,3.31,0,0,1,2.22.59,1.69,1.69,0,0,1,.67,1.43,1.91,1.91,0,0,1-1.36,1.77v0a2.08,2.08,0,0,1,1.66,2,2.15,2.15,0,0,1-.68,1.62,4,4,0,0,1-2.8.76A11.75,11.75,0,0,1,130,18Zm1.05,3.31H132c1.1,0,1.75-.57,1.75-1.35,0-1-.72-1.32-1.78-1.32a4.21,4.21,0,0,0-.92.07Zm0,3.88a6.56,6.56,0,0,0,.87,0c1.08,0,2.08-.39,2.08-1.57s-.95-1.56-2.09-1.56h-.86Z" style="fill:#fff"/><path d="M137.56,9.92v4.79c0,1.81.81,2.58,1.89,2.58s2-.79,2-2.58V9.92h1.06v4.72c0,2.48-1.31,3.5-3.06,3.5s-2.9-.95-2.9-3.46V9.92Z" style="fill:#fff"/><path d="M144.28,10a15.81,15.81,0,0,1,2.22-.17,4.65,4.65,0,0,1,3.28,1,3.73,3.73,0,0,1,1.14,2.9,4.29,4.29,0,0,1-1.17,3.15,5,5,0,0,1-3.57,1.16,16.77,16.77,0,0,1-1.9-.1Zm1.05,7.15a6.25,6.25,0,0,0,1,.06,3.11,3.11,0,0,0,3.44-3.43c0-1.91-1.06-3.12-3.27-3.12a5.82,5.82,0,0,0-1.22.11Z" style="fill:#fff"/><path d="M152.27,10a15.93,15.93,0,0,1,2.22-.17,4.65,4.65,0,0,1,3.28,1,3.73,3.73,0,0,1,1.14,2.9,4.29,4.29,0,0,1-1.17,3.15,5,5,0,0,1-3.57,1.16,16.91,16.91,0,0,1-1.9-.1Zm1,7.15a6.32,6.32,0,0,0,1.05.06,3.11,3.11,0,0,0,3.45-3.43c0-1.91-1.07-3.12-3.28-3.12a5.82,5.82,0,0,0-1.22.11Z" style="fill:#fff"/><path d="M161.31,9.92v3.39h3.91V9.92h1.06V18h-1.06V14.22h-3.91V18h-1V9.92Z" style="fill:#fff"/><path d="M169.13,9.92V18h-1V9.92Z" style="fill:#fff"/><path d="M170.81,16.74a3.82,3.82,0,0,0,1.88.52c1.06,0,1.69-.56,1.69-1.38s-.44-1.18-1.53-1.6c-1.32-.47-2.13-1.15-2.13-2.29a2.33,2.33,0,0,1,2.61-2.2,3.6,3.6,0,0,1,1.79.4l-.29.85a3.12,3.12,0,0,0-1.53-.38c-1.11,0-1.53.65-1.53,1.21,0,.75.5,1.12,1.61,1.56,1.37.52,2.06,1.18,2.06,2.37s-.92,2.33-2.83,2.33a4.13,4.13,0,0,1-2.06-.52Z" style="fill:#fff"/><path d="M183.69,14.46c-.06-1.13-.14-2.49-.12-3.49h0c-.28.94-.61,1.95-1,3.07L181.08,18h-.79L179,14.11c-.39-1.14-.71-2.18-.94-3.14h0c0,1-.09,2.36-.16,3.57L177.65,18h-1l.56-8.09h1.33l1.38,3.91c.34,1,.61,1.89.82,2.73h0c.21-.82.5-1.71.86-2.73l1.44-3.91h1.33l.5,8.09h-1Z" style="fill:#fff"/><path d="M51,22.83h.68v2.52h0l.41-.56,1.59-2h.84l-1.89,2.22,2,3h-.79l-1.72-2.56-.49.57v2H51Z" style="fill:#fff"/><path d="M56.15,26.41l-.54,1.64h-.69l1.77-5.22h.81l1.78,5.22h-.72L58,26.41Zm1.71-.53-.51-1.5c-.11-.34-.19-.65-.27-.95h0c-.08.31-.17.63-.27.94l-.51,1.51Z" style="fill:#fff"/><path d="M60,22.9a7,7,0,0,1,1.29-.1,2.16,2.16,0,0,1,1.51.42,1.31,1.31,0,0,1,.41,1,1.36,1.36,0,0,1-1,1.33v0A1.29,1.29,0,0,1,63,26.62a9.82,9.82,0,0,0,.4,1.43h-.69a6.71,6.71,0,0,1-.35-1.25c-.15-.72-.43-1-1-1h-.64v2.26H60Zm.67,2.38h.69c.72,0,1.18-.4,1.18-1s-.49-1-1.2-1a2.29,2.29,0,0,0-.67.07Z" style="fill:#fff"/><path d="M68.59,25.76c0-.73-.08-1.6-.08-2.25h0c-.18.61-.39,1.26-.66,2L66.91,28H66.4l-.84-2.49a19.93,19.93,0,0,1-.6-2h0c0,.65,0,1.52-.1,2.3l-.14,2.24h-.64l.36-5.22h.86l.89,2.53c.22.64.4,1.21.53,1.75h0c.13-.52.32-1.1.55-1.75l.93-2.53h.85l.33,5.22h-.66Z" style="fill:#fff"/><path d="M71.18,26.41l-.54,1.64h-.7l1.77-5.22h.81l1.78,5.22h-.72L73,26.41Zm1.71-.53-.51-1.5a8.74,8.74,0,0,1-.27-.95h0c-.08.31-.16.63-.26.94l-.51,1.51Z" style="fill:#fff"/><path d="M76.7,22.83h.68v2.52h0l.41-.56,1.59-2h.84l-1.89,2.22,2,3h-.79l-1.72-2.56-.49.57v2H76.7Z" style="fill:#fff"/><path d="M81.81,26.41l-.54,1.64h-.7l1.78-5.22h.81l1.78,5.22h-.72l-.56-1.64Zm1.71-.53L83,24.38c-.12-.34-.19-.65-.27-.95h0c-.07.31-.16.63-.26.94L82,25.88Z" style="fill:#fff"/><path d="M89.55,27.81a4.8,4.8,0,0,1-1.6.29,2.45,2.45,0,0,1-2.68-2.63,2.62,2.62,0,0,1,2.83-2.69,3.23,3.23,0,0,1,1.3.24l-.17.55a2.73,2.73,0,0,0-1.15-.23A2,2,0,0,0,86,25.44a1.91,1.91,0,0,0,2,2.1,2.09,2.09,0,0,0,.89-.14V25.85H87.83v-.54h1.72Z" style="fill:#fff"/><path d="M91.74,28.05V25.84l-1.65-3h.76l.74,1.44c.2.4.35.71.52,1.08h0c.15-.34.33-.68.53-1.08l.75-1.44h.76l-1.74,3v2.22Z" style="fill:#fff"/><path d="M95.43,22.83v3.09c0,1.17.52,1.66,1.21,1.66s1.27-.51,1.27-1.66V22.83h.68v3c0,1.6-.84,2.26-2,2.26s-1.87-.61-1.87-2.23V22.83Z" style="fill:#fff"/><path d="M101.4,22.83h.67v4.65h2.23v.57h-2.9Z" style="fill:#fff"/><path d="M105.72,22.83v5.22H105V22.83Z" style="fill:#fff"/><path d="M106.89,28.05V22.83h.74l1.67,2.64a16.44,16.44,0,0,1,.93,1.69h0a20.63,20.63,0,0,1-.08-2.14V22.83h.63v5.22h-.68l-1.65-2.65a18.09,18.09,0,0,1-1-1.74h0c0,.66,0,1.28,0,2.15v2.23Z" style="fill:#fff"/><path d="M114.68,25.6h-2v1.88h2.26v.57H112V22.83h2.81v.57h-2.14v1.65h2Z" style="fill:#fff"/><path d="M116.62,26.41l-.54,1.64h-.7l1.78-5.22H118l1.78,5.22H119l-.56-1.64Zm1.71-.53-.51-1.5c-.12-.34-.19-.65-.27-.95h0c-.07.31-.16.63-.26.94l-.51,1.51Z" style="fill:#fff"/><path d="M124.36,27.81a4.8,4.8,0,0,1-1.6.29,2.45,2.45,0,0,1-2.68-2.63,2.62,2.62,0,0,1,2.83-2.69,3.23,3.23,0,0,1,1.3.24l-.17.55a2.69,2.69,0,0,0-1.15-.23,2,2,0,0,0-2.09,2.1,1.91,1.91,0,0,0,2,2.1,2.09,2.09,0,0,0,.89-.14V25.85h-1.06v-.54h1.72Z" style="fill:#fff"/><path d="M128.08,25.6h-2v1.88h2.26v.57h-2.93V22.83h2.81v.57h-2.14v1.65h2Z" style="fill:#fff"/><path d="M130.52,26a.81.81,0,1,1,.81.8A.79.79,0,0,1,130.52,26Z" style="fill:#fff"/><path d="M135.32,23.41h-1.59v-.58h3.86v.58H136v4.64h-.68Z" style="fill:#fff"/><path d="M138.43,26.41l-.54,1.64h-.7L139,22.83h.81l1.78,5.22h-.72l-.56-1.64Zm1.71-.53-.51-1.5c-.11-.34-.19-.65-.27-.95h0c-.07.31-.16.63-.26.94l-.51,1.51Z" style="fill:#fff"/><path d="M143,22.83v5.22h-.67V22.83Z" style="fill:#fff"/><path d="M145,28.05l-1.32-5.22h.71l.61,2.64c.16.65.3,1.3.39,1.8h0c.08-.51.25-1.13.42-1.81l.7-2.63h.7l.64,2.65c.14.62.28,1.24.36,1.78h0c.11-.57.26-1.15.42-1.8l.69-2.63h.69l-1.48,5.22h-.7l-.66-2.72a15.91,15.91,0,0,1-.34-1.7h0a16.35,16.35,0,0,1-.41,1.7l-.74,2.72Z" style="fill:#fff"/><path d="M151.11,26.41l-.54,1.64h-.7l1.77-5.22h.81l1.78,5.22h-.72L153,26.41Zm1.71-.53-.51-1.5a8.74,8.74,0,0,1-.27-.95h0c-.08.31-.16.63-.26.94l-.51,1.51Z" style="fill:#fff"/><path d="M155,28.05V22.83h.74l1.67,2.64a13.34,13.34,0,0,1,.93,1.69h0c-.06-.7-.08-1.33-.08-2.14V22.83h.64v5.22h-.68l-1.66-2.65a16,16,0,0,1-1-1.74h0c0,.66.06,1.28.06,2.15v2.23Z" style="fill:#fff"/></svg>